<svg width="59" height="59" viewBox="0 0 59 59" fill="none" xmlns="http://www.w3.org/2000/svg">
<ellipse cx="30.6441" cy="30.0805" rx="21.7989" ry="22.1675" transform="rotate(19.3368 30.6441 30.0805)" fill="#D69739"/>
<g filter="url(#filter0_i_26_1293)">
<ellipse cx="28.9107" cy="28.2675" rx="21.7989" ry="22.1675" transform="rotate(19.3368 28.9107 28.2675)" fill="#FFC122"/>
</g>
<path d="M48.0645 34.9889C44.2771 45.7818 32.6233 51.4734 22.0673 47.7691C11.5112 44.0649 5.9695 32.3391 9.75691 21.5461C13.5443 10.7532 25.1981 5.06159 35.7541 8.76588C46.3102 12.4702 51.8519 24.196 48.0645 34.9889Z" stroke="#FFECB3" stroke-width="3"/>
<path d="M23.6732 26.435L24.8919 15.412L31.3113 18.0379C34.596 19.3815 37.1474 22.0683 38.3196 25.418C39.7653 29.5491 38.2313 34.1349 34.5909 36.5646L33.9644 36.9828C31.1733 38.8456 27.6689 39.2878 24.5026 38.1767L17.7366 35.8024L23.6732 26.435Z" fill="#FFF0CC"/>
<path d="M30.0246 28.2597L29.7988 23.8696C31.1967 24.3602 33.6783 26.2369 32.4212 29.8192C31.1641 33.4015 27.5549 33.6198 25.9074 33.2812L30.0246 28.2597Z" fill="#F8D579"/>
<defs>
<filter id="filter0_i_26_1293" x="3.06516" y="-1.86597" width="47.6911" height="52.2668" filterUnits="userSpaceOnUse" color-interpolation-filters="sRGB">
<feFlood flood-opacity="0" result="BackgroundImageFix"/>
<feBlend mode="normal" in="SourceGraphic" in2="BackgroundImageFix" result="shape"/>
<feColorMatrix in="SourceAlpha" type="matrix" values="0 0 0 0 0 0 0 0 0 0 0 0 0 0 0 0 0 0 127 0" result="hardAlpha"/>
<feOffset dx="-4" dy="-8"/>
<feGaussianBlur stdDeviation="6"/>
<feComposite in2="hardAlpha" operator="arithmetic" k2="-1" k3="1"/>
<feColorMatrix type="matrix" values="0 0 0 0 0.882353 0 0 0 0 0.647059 0 0 0 0 0.286275 0 0 0 0.2 0"/>
<feBlend mode="normal" in2="shape" result="effect1_innerShadow_26_1293"/>
</filter>
</defs>
</svg>
