<svg width="16" height="279" viewBox="0 0 16 279" fill="none" xmlns="http://www.w3.org/2000/svg">
<circle cx="-66.7533" cy="132.302" r="90.1507" fill="#DF6E06"/>
<path d="M-30.0253 218.001C-11.6612 235.808 -3.87042 280.327 -3.87042 309.821" stroke="#DF6E06" stroke-width="19" stroke-linecap="round"/>
<path d="M10.2113 12.8038C-3.61705 32.0965 -28.995 48.305 -37.8161 52.5066L6.07636 79.9922C12.5494 67.2576 17.7298 35.6977 17.831 14.5248C17.8501 10.5328 12.5369 9.5591 10.2113 12.8038Z" fill="#DF6E06"/>
<path d="M12.2677 139.536L42.8744 128.963" stroke="#9A4F09" stroke-width="6" stroke-linecap="round"/>
<path d="M12.2677 137.262L42.8428 147.926" stroke="#9A4F09" stroke-width="6" stroke-linecap="round"/>
<path d="M-1.64448 73.3143C9.04004 64.8557 11.7112 31.5779 17.8325 14.8833C20.0585 50.0532 10.4127 71.6449 6.7028 78.8792C52.112 151.445 -7.76583 223.009 -42.2679 210.766C15.0501 194.072 13.0096 101.324 -1.64448 73.3143Z" fill="#A45003"/>
<path d="M1.13795 318.168C1.58314 271.423 -17.2261 227.09 -26.6863 210.766L-21.678 207.427L-20.565 210.766C5.58984 243.043 6.70281 303.143 6.70281 310.934C6.70281 317.166 2.9929 318.354 1.13795 318.168Z" fill="#A45003"/>
</svg>
