<svg width="225" height="271" viewBox="0 0 225 271" fill="none" xmlns="http://www.w3.org/2000/svg">
<path d="M34.8443 93.1436C36.0386 47.5361 73.7959 17.0191 119.403 18.2134C165.011 19.4076 201.198 51.8609 200.004 97.4685L200.004 243.406C198.81 289.013 154.864 325.017 109.257 323.823C63.649 322.629 21.6398 284.688 22.834 239.081L34.8443 93.1436Z" fill="#FFDFAF"/>
<path d="M115.15 173.732C121.336 181.845 148.788 171.332 161.152 161.964C173.516 152.604 172.336 141.483 166.15 133.377C159.964 125.272 151.117 123.228 138.753 132.588C126.389 141.949 108.972 165.618 115.158 173.732H115.15Z" stroke="#F3CD44" stroke-width="11" stroke-miterlimit="10"/>
<path d="M109.772 173.732C103.586 181.845 76.1344 171.332 63.7707 161.964C51.4069 152.604 52.5871 141.483 58.7729 133.377C64.9587 125.272 73.8058 123.228 86.1695 132.588C98.5333 141.949 115.95 165.618 109.764 173.732H109.772Z" stroke="#F3CD44" stroke-width="11" stroke-miterlimit="10"/>
<path d="M193.665 167.366H34.386C29.6793 167.366 25.8637 171.168 25.8637 175.858V197.941C25.8637 202.632 29.6793 206.434 34.386 206.434H193.665C198.372 206.434 202.187 202.632 202.187 197.941V175.858C202.187 171.168 198.372 167.366 193.665 167.366Z" fill="#F3CD44"/>
<path d="M191.986 206.434V303.772C191.986 310.82 186.275 316.534 179.226 316.534H48.3259C41.2768 316.534 35.5582 310.82 35.5582 303.772V206.434H191.986Z" fill="#F3CD44"/>
<path d="M122.587 167.366H102.787V206.828H122.587V167.366Z" fill="white"/>
<path d="M122.587 206.039H102.787V316.534H122.587V206.039Z" fill="white"/>
<path d="M131.696 167.366H126.944V207.223H131.696V167.366Z" fill="white"/>
<path d="M131.696 206.458H126.944V316.534H131.696V206.458Z" fill="white"/>
<path d="M97.6383 167.76H92.886V207.223H97.6383V167.76Z" fill="white"/>
<path d="M97.6383 206.458H92.886V316.534H97.6383V206.458Z" fill="white"/>
<g style="mix-blend-mode:multiply">
<path d="M191.891 206.434H35.8592V214.326H191.891V206.434Z" fill="#E8AC51"/>
</g>
<path d="M192.43 236.066C197.867 236.066 202.274 240.473 202.274 245.909L202.274 268.258C202.274 273.694 197.867 278.101 192.43 278.101L177.653 278.101C166.045 278.101 156.635 268.691 156.635 257.083V257.083C156.635 245.476 166.045 236.066 177.653 236.066L192.43 236.066Z" fill="#FFDFAF"/>
<path d="M23.0419 236.462L23.5394 230.538L35.5542 229.591L35.6059 236.101L23.0419 236.462Z" fill="#CA9547"/>
<path d="M191.952 236.077V230.008H210.296V240.325L191.952 236.077Z" fill="#CA9547"/>
<path d="M25.959 236.066C20.5225 236.066 16.1153 240.473 16.1153 245.909L16.1153 268.258C16.1153 273.694 20.5225 278.101 25.959 278.101L40.7363 278.101C52.3442 278.101 61.7542 268.691 61.7542 257.083V257.083C61.7542 245.476 52.3442 236.066 40.7363 236.066L25.959 236.066Z" fill="#DA9126"/>
<path d="M25.959 230.644C20.5225 230.644 16.1153 235.051 16.1153 240.488L16.1153 262.836C16.1153 268.273 20.5225 272.68 25.959 272.68L40.7363 272.68C52.3442 272.68 61.7542 263.27 61.7542 251.662V251.662C61.7542 240.054 52.3442 230.644 40.7363 230.644L25.959 230.644Z" fill="#FFDFAF"/>
<path d="M198.137 236.066C204.682 236.066 209.988 241.371 209.988 247.917L209.988 266.25C209.988 272.796 204.682 278.101 198.137 278.101L176.061 278.101C164.453 278.101 155.043 268.691 155.043 257.083V257.083C155.043 245.476 164.453 236.066 176.061 236.066L198.137 236.066Z" fill="#DA9126"/>
<path d="M198.137 230.644C204.682 230.644 209.988 235.95 209.988 242.495L209.988 260.829C209.988 267.374 204.682 272.68 198.137 272.68L176.061 272.68C164.453 272.68 155.043 263.27 155.043 251.662V251.662C155.043 240.054 164.453 230.644 176.061 230.644L198.137 230.644Z" fill="#FFDFAF"/>
<circle r="11.487" transform="matrix(-0.965926 0.258819 0.258819 0.965926 86.0317 75.1657)" fill="white"/>
<circle r="7.20615" transform="matrix(-0.965926 0.258819 0.258819 0.965926 85.5928 79.5309)" fill="black"/>
<circle r="11.487" transform="matrix(-0.965926 0.258819 0.258819 0.965926 148.485 75.1657)" fill="white"/>
<circle r="7.20615" transform="matrix(-0.965926 0.258819 0.258819 0.965926 148.046 79.5309)" fill="black"/>
<path d="M83.3727 97.0062H148.228V97.0062C148.228 106.293 140.7 113.821 131.414 113.821H100.187C90.9008 113.821 83.3727 106.293 83.3727 97.0062V97.0062Z" fill="#805009"/>
<rect x="95.9835" y="97.0062" width="38.4328" height="8.40717" fill="white"/>
<line x1="118.087" y1="23.2354" x2="118.087" y2="0.110428" stroke="#FFDFAF" stroke-width="9"/>
<line x1="125.774" y1="22.6843" x2="138.73" y2="6.10726" stroke="#FFDFAF" stroke-width="9"/>
<line x1="115.239" y1="28.0627" x2="99.1189" y2="5.38715" stroke="#FFDFAF" stroke-width="9"/>
</svg>
