<svg width="227" height="279" viewBox="0 0 227 279" fill="none" xmlns="http://www.w3.org/2000/svg">
<circle cx="114.335" cy="132.302" r="90.1507" fill="#DF6E06"/>
<path d="M79.8326 209.653H152.176L161.08 299.248H69.8159L79.8326 209.653Z" fill="#DF6E06"/>
<circle cx="78.2348" cy="114.009" r="10.6449" fill="white"/>
<circle cx="150.435" cy="114.009" r="10.6449" fill="white"/>
<ellipse cx="115.448" cy="136.197" rx="15.5816" ry="12.7992" fill="#693301"/>
<path d="M191.299 12.8038C177.471 32.0965 152.093 48.305 143.272 52.5066L187.164 79.9922C193.637 67.2576 198.818 35.6977 198.919 14.5248C198.938 10.5328 193.625 9.5591 191.299 12.8038Z" fill="#DF6E06"/>
<path d="M38.4169 12.3408C52.4713 31.492 78.5792 47.6169 87.6234 51.7808L42.8531 78.8792C36.2234 66.2723 30.9232 34.9522 30.8624 14.0767C30.8508 10.1226 36.0775 9.15297 38.4169 12.3408Z" fill="#DF6E06"/>
<path d="M45.9335 28.817C55.0023 39.012 68.4455 47.2283 73.4622 49.538L45.5674 66.4221C41.9354 59.5155 38.9437 43.5946 38.2485 31.0092C38.0305 27.0611 43.3055 25.8626 45.9335 28.817Z" fill="#A45003"/>
<path d="M183.17 28.817C174.101 39.012 160.658 47.2283 155.641 49.538L179 66.4708C182.636 59.5566 187.891 43.5844 189.911 30.9783C190.537 27.074 185.798 25.8626 183.17 28.817Z" fill="#A45003"/>
<path d="M193.356 139.536L223.962 128.963" stroke="#9A4F09" stroke-width="6" stroke-linecap="round"/>
<path d="M193.356 137.262L223.931 147.926" stroke="#9A4F09" stroke-width="6" stroke-linecap="round"/>
<path d="M33.6443 139.536L3.03757 128.963" stroke="#DF6E06" stroke-width="6" stroke-linecap="round"/>
<path d="M33.6443 137.262L3.06918 147.926" stroke="#DF6E06" stroke-width="6" stroke-linecap="round"/>
<circle cx="76.4937" cy="110.042" r="6.67783" fill="black"/>
<circle cx="146.611" cy="111.155" r="6.67783" fill="black"/>
<path d="M92.0753 162.352C107.1 170.699 125.242 172.146 137.707 162.352" stroke="#693301" stroke-width="6" stroke-linecap="round"/>
<path d="M179.444 73.3143C190.128 64.8557 192.799 31.5779 198.921 14.8833C201.147 50.0532 191.501 71.6449 187.791 78.8792C233.2 151.445 172.592 225.079 138.09 212.837C195.408 196.142 194.098 101.324 179.444 73.3143Z" fill="#A45003"/>
<path d="M89.8902 256.392C90.3026 250.081 95.5411 245.174 101.865 245.174H132.034C138.357 245.174 143.596 250.081 144.008 256.391L145.439 278.288C145.892 285.209 140.4 291.071 133.465 291.071H100.433C93.498 291.071 88.0065 285.209 88.4589 278.288L89.8902 256.392Z" fill="white" fill-opacity="0.2"/>
</svg>
